<svg width="122" height="80" viewBox="0 0 122 80" fill="none" xmlns="http://www.w3.org/2000/svg">
<g clip-path="url(#clip0_1475_771)">
<path d="M97.358 63.6419H24.642C21.5367 63.6429 18.4615 63.0322 15.5922 61.8446C12.7229 60.6569 10.1157 58.9157 7.91947 56.7202C5.72326 54.5247 3.98109 51.9181 2.79247 49.0492C1.60385 46.1803 0.992065 43.1054 0.992065 40C0.992065 36.8946 1.60385 33.8197 2.79247 30.9508C3.98109 28.0819 5.72326 25.4753 7.91947 23.2798C10.1157 21.0844 12.7229 19.3431 15.5922 18.1555C18.4615 16.9678 21.5367 16.3571 24.642 16.3582H97.358C100.463 16.3571 103.539 16.9678 106.408 18.1555C109.277 19.3431 111.884 21.0844 114.081 23.2798C116.277 25.4753 118.019 28.0819 119.208 30.9508C120.396 33.8197 121.008 36.8946 121.008 40C121.008 43.1054 120.396 46.1803 119.208 49.0492C118.019 51.9181 116.277 54.5247 114.081 56.7202C111.884 58.9157 109.277 60.6569 106.408 61.8446C103.539 63.0322 100.463 63.6429 97.358 63.6419ZM24.642 17.1897C21.6459 17.1886 18.6788 17.7779 15.9104 18.9237C13.142 20.0696 10.6265 21.7496 8.50754 23.8679C6.38856 25.9861 4.70765 28.501 3.56082 31.269C2.414 34.037 1.82373 37.0039 1.82373 40C1.82373 42.9962 2.414 45.963 3.56082 48.731C4.70765 51.499 6.38856 54.0139 8.50754 56.1322C10.6265 58.2504 13.142 59.9305 15.9104 61.0763C18.6788 62.2222 21.6459 62.8114 24.642 62.8104H97.358C100.354 62.8114 103.321 62.2222 106.09 61.0763C108.858 59.9305 111.374 58.2504 113.493 56.1322C115.612 54.0139 117.292 51.499 118.439 48.731C119.586 45.963 120.176 42.9962 120.176 40C120.176 37.0039 119.586 34.037 118.439 31.269C117.292 28.501 115.612 25.9861 113.493 23.8679C111.374 21.7496 108.858 20.0696 106.09 18.9237C103.321 17.7779 100.354 17.1886 97.358 17.1897H24.642Z" fill="#30373F"/>
<path d="M97.3483 60.5616H24.6517C21.9509 60.5626 19.2764 60.0315 16.7809 58.9986C14.2854 57.9657 12.0178 56.4513 10.1077 54.5419C8.19763 52.6325 6.68241 50.3655 5.64863 47.8704C4.61485 45.3753 4.08276 42.7009 4.08276 40.0001C4.08276 37.2993 4.61485 34.625 5.64863 32.1299C6.68241 29.6348 8.19763 27.3678 10.1077 25.4584C12.0178 23.549 14.2854 22.0346 16.7809 21.0017C19.2764 19.9688 21.9509 19.4377 24.6517 19.4387H97.3483C102.801 19.4387 108.031 21.605 111.887 25.461C115.743 29.317 117.91 34.5469 117.91 40.0001C117.91 45.4534 115.743 50.6833 111.887 54.5393C108.031 58.3953 102.801 60.5616 97.3483 60.5616ZM24.6517 19.7159C21.9873 19.7149 19.3489 20.2389 16.887 21.2578C14.4251 22.2767 12.1881 23.7707 10.3038 25.6544C8.4194 27.538 6.9246 29.7745 5.90475 32.236C4.8849 34.6975 4.35999 37.3358 4.35999 40.0001C4.35999 42.6645 4.8849 45.3028 5.90475 47.7643C6.9246 50.2258 8.4194 52.4623 10.3038 54.3459C12.1881 56.2296 14.4251 57.7236 16.887 58.7425C19.3489 59.7614 21.9873 60.2854 24.6517 60.2844H97.3483C100.013 60.2854 102.651 59.7614 105.113 58.7425C107.575 57.7236 109.812 56.2296 111.696 54.3459C113.581 52.4623 115.075 50.2258 116.095 47.7643C117.115 45.3028 117.64 42.6645 117.64 40.0001C117.64 37.3358 117.115 34.6975 116.095 32.236C115.075 29.7745 113.581 27.538 111.696 25.6544C109.812 23.7707 107.575 22.2767 105.113 21.2578C102.651 20.2389 100.013 19.7149 97.3483 19.7159H24.6517Z" fill="#30373F"/>
<path d="M28.2574 34.9808C31.2516 34.9808 33.4361 36.7478 33.4361 38.9814C33.4361 40.994 31.6691 42.6388 29.1411 42.9332V45.7556C30.4662 45.7313 31.7426 45.6821 32.9942 45.6082C34.2215 45.5347 34.909 45.3873 35.4979 45.0194C36.2729 45.0631 37.0438 45.1615 37.8049 45.3138C38.4186 45.4364 38.7378 45.7313 38.7378 46.0748C38.7378 46.5902 38.4186 46.8355 37.8049 46.8355C37.4857 46.8355 36.7251 46.7863 35.6696 46.6885C35.2526 46.6637 34.1723 46.6393 32.7485 46.6393C29.5581 46.6885 26.3182 46.7863 23.0783 46.9581C22.394 46.9954 21.7289 47.1975 21.1396 47.5474C20.2559 47.4739 18.9551 46.9094 18.2432 46.4184C18.1488 46.3544 18.0693 46.2709 18.0101 46.1735C17.9508 46.0761 17.9131 45.9671 17.8997 45.8539C17.8997 45.6082 18.1697 45.5347 18.6851 45.6082C19.7476 45.7842 20.8236 45.8664 21.9006 45.8539C23.8885 45.8539 25.7537 45.8292 27.5207 45.8048V42.9576C24.8944 42.6875 23.0783 41.0432 23.0783 38.9814C23.0783 36.7478 25.2628 34.9808 28.2574 34.9808ZM20.2559 33.5818C20.1681 33.5099 20.0966 33.4203 20.0458 33.3188C19.9951 33.2173 19.9664 33.1063 19.9615 32.9929C19.9615 32.772 20.182 32.649 20.6486 32.7229C21.5873 32.8983 22.541 32.9805 23.4958 32.9682C25.6799 32.9682 29.2881 32.919 30.8589 32.7964C31.9391 32.6981 32.5528 32.5755 33.0925 32.2075C33.8097 32.2607 34.5229 32.359 35.2278 32.502C35.7923 32.6246 36.0623 32.919 36.0623 33.2626C36.0623 33.7784 35.7923 34.0236 35.2278 34.0236C34.933 34.0236 33.927 33.9254 33.2151 33.8762C32.6263 33.8271 31.6443 33.8271 30.638 33.8271C29.1411 33.8271 26.1217 33.901 24.5265 34.0728C23.9162 34.1177 23.3263 34.3115 22.8083 34.6373C21.8865 34.4902 21.0122 34.1287 20.2559 33.5818ZM30.0735 31.2499C29.3616 31.2499 26.9566 31.2499 26.1956 31.3238C25.5523 31.0472 24.9751 30.6372 24.5021 30.121C24.2568 29.8265 24.4286 29.5073 25.0175 29.6304C25.2875 29.6791 25.9255 29.7774 26.3182 29.8265C27.0301 29.9248 29.018 29.9248 30.1226 29.9248C30.8098 29.9248 31.1777 30.0966 31.1777 30.5384C31.1777 30.9311 30.638 31.2499 30.0735 31.2499ZM28.2574 41.7794C29.9265 41.7794 31.7178 40.6996 31.7178 38.9814C31.7178 37.2636 29.9265 36.1833 28.2574 36.1833C26.5392 36.1833 24.7966 37.2636 24.7966 38.9814C24.7966 40.724 26.5392 41.7794 28.2574 41.7794Z" fill="#30373F"/>
<path d="M43.7698 39.448C43.7611 39.5264 43.7705 39.6058 43.7974 39.68C43.8242 39.7542 43.8678 39.8211 43.9248 39.8757C43.9818 39.9303 44.0505 39.9711 44.1258 39.9948C44.201 40.0185 44.2807 40.0246 44.3587 40.0125C46.4591 39.9719 48.5526 39.7584 50.618 39.3741C51.2556 39.2271 51.4521 40.0369 50.7159 40.3069C48.4906 41.0668 46.1681 41.5048 43.819 41.6077C42.3708 41.6077 42.052 40.7488 42.052 39.2762V34.3181C41.7819 33.8519 41.1192 33.4835 40.5299 33.3118C39.794 33.0908 39.818 32.4285 40.5547 32.4285C41.217 32.4285 42.6408 32.6003 43.6228 32.6003C44.3938 32.6291 45.1659 32.5879 45.9295 32.4772C46.3376 32.3938 46.7178 32.2081 47.0345 31.9375C47.6143 31.8881 48.1973 31.8881 48.7771 31.9375C49.3412 31.9619 49.636 32.1828 49.636 32.6003C49.636 33.2139 49.145 33.3609 48.3105 33.3857C46.5679 33.4592 45.6107 33.4592 43.7946 33.5575C43.7698 33.8519 43.7698 33.9745 43.7698 33.9993V36.2816C44.2222 36.3015 44.6754 36.2685 45.1201 36.1833C45.5591 36.1084 45.9773 35.9412 46.347 35.6928C46.8612 35.648 47.378 35.6397 47.8934 35.668C48.4575 35.6928 48.6788 35.938 48.6788 36.3064C48.6788 36.92 48.2617 37.0427 47.4268 37.067C45.979 37.1162 44.9971 37.1653 43.7698 37.2388L43.7698 39.448ZM49.4886 49.8301C51.3553 49.8819 53.2234 49.8327 55.0847 49.6827C55.6001 49.6336 56.3364 49.4374 56.7047 49.0939C57.3355 49.0569 57.9683 49.0815 58.5943 49.1674C59.0853 49.2165 59.6498 49.4374 59.6498 49.928C59.6498 50.4437 59.2079 50.7134 58.3982 50.689C56.7047 50.6399 52.0658 50.7873 49.366 50.7873C47.9917 50.8852 47.2306 50.2472 47.2306 48.8729V47.5965C47.0097 47.0321 46.4209 46.8355 45.856 46.6885C45.1201 46.4919 45.1688 45.9275 45.9295 45.8783C46.6662 45.8292 48.2857 46.001 49.145 46.0257C51.4034 46.0749 54.6185 45.9275 55.9437 45.8292C56.0176 45.1668 56.0663 44.0131 56.0663 43.3751C54.2993 43.2768 51.5256 43.473 49.783 43.6204C49.0692 43.6763 48.3711 43.8592 47.7216 44.1605C46.9272 43.9103 46.1804 43.5286 45.5124 43.0311C45.0706 42.6388 45.4637 42.2949 45.856 42.3688C46.2491 42.4423 47.3285 42.5158 47.7216 42.5405C50.1761 42.6388 53.9314 42.4666 55.2074 42.3931C56.1398 42.344 57.2448 42.2705 57.5884 42.2213C58.1281 42.1478 58.3243 42.3931 58.3243 42.6141C58.2763 42.9307 58.1769 43.2374 58.0302 43.5221C57.8337 44.2831 57.5636 45.1421 57.3427 45.7557C57.8824 45.6822 58.5456 45.7805 58.496 46.3693C58.4721 46.8112 58.0055 46.9094 57.3918 46.8603C54.0537 46.8355 51.0351 46.9338 48.9976 47.0321C48.9799 47.2033 48.9718 47.3753 48.9733 47.5474V49.1674C48.9733 49.5844 49.145 49.8301 49.4886 49.8301ZM54.6429 31.2012C54.5394 31.7848 54.482 32.3756 54.4711 32.9682V37.1409C54.4711 38.1469 54.545 41.2885 53.5383 41.2885C53.17 41.2885 52.9003 40.7488 52.9003 39.6442V36.3064C52.6609 36.3331 52.4233 36.374 52.1888 36.429C51.792 36.5052 51.4105 36.6461 51.0594 36.8461C50.3958 36.7224 49.7675 36.4542 49.219 36.0607C48.7771 35.668 49.0711 35.3001 49.4886 35.3736C49.783 35.4227 50.8137 35.4227 51.3051 35.4227C51.8382 35.4175 52.3706 35.3847 52.9003 35.3244V32.4037C52.4354 31.8899 51.8425 31.5088 51.1821 31.2991C50.4949 31.0538 50.5684 30.4646 51.2803 30.4646C51.8448 30.4646 53.9554 30.6855 54.6429 31.2012ZM58.4473 29.8513C58.344 30.4349 58.2866 31.0257 58.2755 31.6183V37.3862C58.2755 38.3925 58.3243 41.5342 57.3183 41.5342C56.95 41.5342 56.7047 40.9941 56.7047 39.8895V31.0538C56.2061 30.5225 55.5814 30.1257 54.8886 29.9001C54.1767 29.6548 54.2502 29.0659 54.9865 29.0659C55.5757 29.0659 57.7602 29.3356 58.4473 29.8513Z" fill="#30373F"/>
<path d="M66.3757 33.9254C68.9772 33.9254 70.8916 35.6189 71.2847 37.8772C72.0945 37.9016 73.0025 37.8772 73.9597 37.8525V32.993C73.9597 32.0602 73.0516 31.6918 72.1188 31.3731C71.8248 31.25 71.677 31.1274 71.677 30.9803C71.677 30.7838 71.8983 30.5385 72.3645 30.5385C72.806 30.5385 75.2361 30.8821 75.6288 31.0782L75.5305 32.3794V43.7678C75.5305 45.0194 75.5553 49.4618 74.4998 49.4618C74.1315 49.4618 73.9597 48.4311 73.9597 46.4185V38.8097C73.7144 38.8344 73.4935 38.8836 73.3217 38.9079C72.989 38.9795 72.6726 39.1127 72.3889 39.3007C72.0453 39.2333 71.7086 39.1347 71.3829 39.0062C71.2599 41.6077 69.2472 43.596 66.3757 43.596C63.381 43.596 61.3688 41.4851 61.3688 38.7853C61.3688 36.0855 63.381 33.9254 66.3757 33.9254ZM66.4004 42.3196C68.2413 42.3196 69.6643 40.8958 69.6643 38.687C69.6643 36.5026 68.2413 35.0544 66.4004 35.0544C64.5596 35.0544 63.1605 36.5026 63.1605 38.687C63.1605 40.8958 64.5596 42.3196 66.4004 42.3196ZM79.6541 30.9556V45.2403C79.6541 46.5167 79.6789 50.9344 78.5986 50.9344C78.2303 50.9344 78.0585 49.9037 78.0585 47.891V31.4222C78.0585 30.8329 77.4449 30.3667 76.2424 29.9001C75.9724 29.7775 75.7758 29.6548 75.7758 29.5074C75.7758 29.3356 76.0215 29.0903 76.5125 29.0903C76.9543 29.0903 79.3349 29.4095 79.7524 29.6304L79.6541 30.9556Z" fill="#30373F"/>
<path d="M91.313 31.6918C91.0104 32.7964 90.5735 33.8598 90.0123 34.8582L91.4113 35.9872C92.0497 36.5025 92.6629 36.9444 93.3748 36.92C93.9393 37.4106 94.9948 38.4417 95.2401 39.1532C95.5593 39.9634 94.823 40.6261 94.0128 39.9634L89.4478 35.8154C88.0979 37.8524 86.2322 39.5215 83.9499 40.9697C83.2624 41.4115 82.7966 40.7979 83.3854 40.3069C86.0605 38.0734 88.1962 35.3244 89.1038 32.4285C88.9816 32.0354 88.4662 31.5939 87.877 31.2991C87.1407 30.9312 87.6069 30.4893 88.1962 30.5385C89.3251 30.6367 90.8712 31.2256 91.313 31.6918ZM86.2079 47.1791C86.0361 46.7376 85.5942 46.4428 85.0298 46.2958C84.2935 46.0992 84.3426 45.5347 85.1033 45.4856C86.1117 45.4764 87.1199 45.5257 88.1227 45.633C88.7645 45.6743 89.409 45.6247 90.037 45.4856C90.1105 44.8228 90.1593 43.6939 90.1593 43.0559C89.7422 43.0559 88.7602 43.1294 88.3923 43.1785C87.8068 43.2439 87.2353 43.4012 86.6988 43.6447C86.0305 43.4685 85.4045 43.1597 84.858 42.7367C84.4161 42.344 84.8088 42.0004 85.2015 42.0739C85.5942 42.1478 86.4779 42.1969 86.9441 42.2213C87.7058 42.236 88.4677 42.2115 89.2268 42.1478C90.1592 42.0739 91.0677 42.0252 91.4113 41.976C91.9514 41.9021 92.1475 42.1478 92.1475 42.3687C92.0865 42.6664 91.9875 42.9551 91.8531 43.2276C91.6566 43.9148 91.436 44.8476 91.2882 45.4121C91.7549 45.3386 92.1232 45.4856 92.0737 45.9766C92.0249 46.3937 91.6813 46.4676 91.2882 46.4428C90.0858 46.4676 89.0798 46.5411 87.8526 46.6146C87.8346 46.7859 87.8263 46.9581 87.8278 47.1303V48.652C87.8278 49.0447 87.9504 49.2165 88.3432 49.2165C89.0798 49.2165 91.0921 48.8238 92.5155 48.3819C93.0804 48.2102 93.3257 48.8729 92.6138 49.2165C91.1165 49.9528 89.0059 50.6647 87.9996 50.7382C86.5518 50.8364 86.2078 49.9528 86.2078 48.4802L86.2079 47.1791ZM97.6946 42.2948C98.5287 42.2213 99.1184 42.1722 99.5842 42.1478C100.124 42.123 100.247 42.344 100.223 42.5649C100.198 42.7858 100.1 43.1542 100.051 43.4977C99.9278 44.6019 99.6581 47.253 99.4863 48.7011C99.9278 48.6029 100.37 48.7255 100.345 49.1674C100.321 49.6336 100.124 49.8545 99.462 49.8545C97.9399 49.8545 96.6883 49.8793 95.3384 49.9036C95.3136 50.198 95.0192 50.6647 94.6756 50.689C94.332 50.7134 94.0863 50.3207 94.0376 49.7562L93.6205 43.7921C93.5301 43.5898 93.398 43.4088 93.2331 43.2608C93.0681 43.1129 92.8738 43.0012 92.6629 42.9332C92.0249 42.7367 92.0002 42.1478 92.7121 42.0987C93.5608 42.0965 94.4076 42.1787 95.2401 42.344C96.0583 42.391 96.8789 42.3746 97.6946 42.2948ZM95.2648 43.3503C95.2401 43.6939 95.2401 43.8413 95.2401 43.9396L95.3631 48.8973C96.3203 48.9221 97.3263 48.8482 98.3082 48.7747L98.357 43.2768C97.5715 43.252 96.1725 43.2768 95.2648 43.3503V43.3503ZM99.5842 29.8513C99.4809 30.4349 99.4234 31.0257 99.4124 31.6183V36.2572C99.6581 36.2325 99.9038 36.2325 100.124 36.2081C100.64 36.1511 101.122 35.9271 101.499 35.5701C102.055 35.5293 102.613 35.5374 103.168 35.5945C103.561 35.6436 104.101 35.8398 104.101 36.3799C104.101 36.8952 103.536 37.1897 102.849 37.1653C102.137 37.1409 100.836 37.1897 99.4124 37.2144V37.2636C99.4124 38.2699 99.462 41.4115 98.4552 41.4115C98.0873 41.4115 97.8172 40.8714 97.8172 39.7668V31.0538C97.3019 30.4402 96.3691 30.0722 95.8537 29.9001C95.1174 29.6548 95.1913 29.0659 95.952 29.0659C96.5656 29.0659 98.8971 29.3356 99.5842 29.8513V29.8513Z" fill="#30373F"/>
</g>
<defs>
<clipPath id="clip0_1475_771">
<rect width="122" height="48" fill="white" transform="translate(0 16)"/>
</clipPath>
</defs>
</svg>
