<svg width="74" height="20" viewBox="0 0 74 20" fill="none" xmlns="http://www.w3.org/2000/svg">
<rect width="74" height="20" rx="4" fill="#DCF1EC"/>
<path fill-rule="evenodd" clip-rule="evenodd" d="M5 7.50001C6.38071 7.50001 7.5 8.6193 7.5 10C7.5 11.3807 6.38071 12.5 5 12.5L5 15L19 15V12.5C17.6193 12.5 16.5 11.3807 16.5 10C16.5 8.6193 17.6193 7.50001 19 7.50001V5L5 5L5 7.50001Z" fill="#03936E"/>
<circle cx="1.28567" cy="1.28567" r="0.935672" transform="matrix(1 0 0 -1 9 9.57135)" stroke="white" stroke-width="0.7"/>
<circle cx="1.28567" cy="1.28567" r="0.935672" transform="matrix(1 0 0 -1 12.4287 13)" stroke="white" stroke-width="0.7"/>
<path d="M14 7H15L10 13H9L14 7Z" fill="white"/>
<path d="M31.4707 6.50977H25.2109V7.49609H30.2793C30.2744 7.79395 30.2744 8.10156 30.2598 8.43359L24.9277 8.58008L25.0742 9.64453L30.1768 9.39062C30.1279 9.79102 30.0547 10.2256 29.9473 10.6992H24.2637V11.7051H27.6914V14.8789H28.9414V11.7051H32.3691V10.6992H31.168C31.4658 9.26367 31.4658 8.2334 31.4707 7.31055V6.50977ZM40.2891 6.33398H33.6191V7.33984H34.7715V8.87305H33.6777V9.83984H36.3242V10.6699H32.9062V11.6465H41.0117V10.6699H37.5742V9.83984H40.2305V8.87305H39.127V7.33984H40.2891V6.33398ZM33.8828 14.7422H40.0938V13.7461H35.1328V12.2227H33.8828V14.7422ZM36.0215 8.87305V7.33984H37.877V8.87305H36.0215ZM48.9805 6.50977H44.1562V7.49609H45.9434C45.9336 8.59961 45.2695 9.77637 43.8047 10.2402L44.4395 11.2266C45.4893 10.8896 46.1973 10.1768 46.5928 9.29297C46.9785 10.0889 47.6572 10.7334 48.6387 11.041L49.2539 10.084C47.8525 9.62012 47.2178 8.54102 47.2129 7.49609H48.9805V6.50977ZM45.2402 12.6914H50.1035V14.8984H51.3438V11.6953H45.2402V12.6914ZM48.7266 9.16602H50.1035V11.3047H51.3438V6.01172H50.1035V8.15039H48.7266V9.16602ZM60.6016 10.2207H58.7363V9.16602C59.4004 8.88281 59.7764 8.43848 59.7812 7.85742C59.7764 6.7832 58.5117 6.14355 56.5488 6.13867C54.5713 6.14355 53.3066 6.7832 53.3066 7.85742C53.3066 8.42871 53.6729 8.86816 54.3223 9.15625V10.2207H52.4961V11.2168H60.6016V10.2207ZM53.4238 13.2773C53.4238 14.3271 54.5908 14.8887 56.5391 14.8887C58.458 14.8887 59.625 14.3271 59.6348 13.2773C59.625 12.252 58.458 11.6807 56.5391 11.6855C54.5908 11.6807 53.4238 12.252 53.4238 13.2773ZM54.6055 7.85742C54.5957 7.35938 55.2939 7.0957 56.5488 7.0957C57.7891 7.0957 58.4922 7.35938 58.4922 7.85742C58.4922 8.3457 57.7891 8.59473 56.5488 8.58984C55.2939 8.59473 54.5957 8.3457 54.6055 7.85742ZM54.6934 13.2773C54.6885 12.8379 55.3086 12.6279 56.5391 12.623C57.7451 12.6279 58.3799 12.8379 58.3848 13.2773C58.3799 13.7314 57.7451 13.9609 56.5391 13.9609C55.3086 13.9609 54.6885 13.7314 54.6934 13.2773ZM55.582 10.2207V9.47363C55.8799 9.50781 56.2021 9.52734 56.5488 9.52734C56.8857 9.52734 57.2031 9.5127 57.4961 9.47363V10.2207H55.582ZM68.1504 6.01172H66.9004V14.8789H68.1504V10.4453H69.4102V9.41992H68.1504V6.01172ZM61.041 12.3887L61.7441 13.3457C64.7324 11.876 65.7676 9.57617 65.7773 6.91992H61.5488V7.93555H64.5127C64.2783 9.91797 63.1455 11.334 61.041 12.3887Z" fill="#03936E"/>
</svg>
